# xmcd CD database file
#
# Track frame offsets:
#	150
#	54342
#	108560
#	162710
#
# Disc length: 2891 seconds
#
# Revision: 0
# Processed by: cddbd v1.5.1PL0 Copyright (c) Steve Scherf et al.
# Submitted via: CDex 1.51
#
DISCID=310b4904
DTITLE=Dominique LANGHAM - Voyage dans l'air pur
DYEAR=2004
DGENRE=New Age
TTITLE0=Aquilon, vent des Highlands
TTITLE1=Karaburan, vent d'Asie
TTITLE2=Sirocco, vent du Maghreb
TTITLE3=Puña, vent du Pérou
EXTD=YEAR: 2004
EXTT0=
EXTT1=
EXTT2=
EXTT3=
PLAYORDER=
